<svg width="15" height="16" viewBox="0 0 15 16" fill="none" xmlns="http://www.w3.org/2000/svg">
<path d="M10.9155 1.59979C11.3643 1.15107 11.973 0.899053 12.6076 0.89917C13.2422 0.899287 13.8508 1.15153 14.2995 1.60041C14.7481 2.0493 15.0001 2.65804 15 3.29274C14.9999 3.92744 14.7477 4.5361 14.2988 4.98481L13.3827 5.89982L9.99685 2.51729L10.9142 1.59979H10.9155ZM9.11571 3.40105L1.67159 10.8436C1.44563 11.0697 1.27534 11.3453 1.17415 11.6486L0.0317855 15.0774C-0.00470816 15.1874 -0.00988941 15.3054 0.0168209 15.4182C0.0435312 15.531 0.10108 15.6341 0.183036 15.7161C0.264993 15.7981 0.368126 15.8556 0.48091 15.8823C0.593694 15.9091 0.711684 15.9039 0.821692 15.8674L4.25004 14.7249C4.55375 14.6249 4.82872 14.4536 5.05494 14.2274L12.4991 6.78482L9.11446 3.40105H9.11571Z" fill="#A4A2A2"/>
</svg>
