<svg width="100" height="100" viewBox="0 0 100 100" fill="none" xmlns="http://www.w3.org/2000/svg">
<circle opacity="0.05" cx="50" cy="50" r="50" fill="#EB0F0F"/>
<ellipse opacity="0.13" cx="50" cy="50" rx="37.5" ry="37.5" fill="#EB0F0F"/>
<circle opacity="0.28" cx="50" cy="50" r="30" fill="#EB0F0F"/>
<circle cx="49.75" cy="50.2505" r="23.75" fill="#EB0F0F"/>
<path d="M53.2118 48.879L61.3902 41.0489C61.6239 40.8289 61.8097 40.5667 61.937 40.2776C62.0643 39.9885 62.1305 39.6781 62.1319 39.3643C62.1333 39.0506 62.0697 38.7397 61.945 38.4495C61.8202 38.1594 61.6367 37.8958 61.405 37.6739C61.1733 37.452 60.898 37.2762 60.595 37.1567C60.292 37.0372 59.9672 36.9763 59.6395 36.9776C59.3118 36.9788 58.9876 37.0421 58.6856 37.164C58.3836 37.2858 58.1097 37.4636 57.8799 37.6872L49.7015 45.5174L41.523 37.688C41.2925 37.4673 41.0188 37.2922 40.7176 37.1728C40.4163 37.0533 40.0935 36.9918 39.7674 36.9918C39.4414 36.9918 39.1185 37.0533 38.8173 37.1728C38.5161 37.2922 38.2424 37.4673 38.0118 37.688C37.5462 38.1338 37.2847 38.7384 37.2847 39.3689C37.2847 39.9993 37.5462 40.6039 38.0118 41.0497L46.1903 48.879L37.992 56.7282C37.5327 57.1752 37.2766 57.7778 37.2793 58.4049C37.2821 59.0319 37.5435 59.6325 38.0066 60.0758C38.4698 60.5191 39.0971 60.7693 39.7521 60.7717C40.407 60.7742 41.0364 60.5288 41.5032 60.089L49.7006 52.2407L57.8782 60.07C58.3631 60.5343 58.9987 60.7664 59.6334 60.7664C60.2681 60.7664 60.9036 60.5343 61.3886 60.07C61.6192 59.8494 61.8022 59.5875 61.927 59.2991C62.0519 59.0108 62.1161 58.7017 62.1161 58.3896C62.1161 58.0774 62.0519 57.7684 61.927 57.48C61.8022 57.1917 61.6192 56.9297 61.3886 56.7091L53.2118 48.879Z" fill="white"/>
</svg>
