<svg width="20" height="17" viewBox="0 0 20 17" fill="none" xmlns="http://www.w3.org/2000/svg">
<path d="M10 0.749989V7.39999H17.442L15.72 5.67599C15.5927 5.54894 15.5153 5.38039 15.5019 5.20106C15.4885 5.02172 15.54 4.84354 15.647 4.69899L15.72 4.61499C15.8471 4.48812 16.0155 4.41108 16.1946 4.39786C16.3737 4.38465 16.5516 4.43615 16.696 4.54299L16.78 4.61499L19.777 7.61299C19.904 7.73998 19.9812 7.90833 19.9946 8.08744C20.008 8.26655 19.9567 8.44452 19.85 8.58899L19.777 8.67299L16.781 11.676C16.6472 11.8093 16.468 11.8872 16.2792 11.8941C16.0904 11.901 15.906 11.8364 15.7628 11.7133C15.6196 11.5901 15.5281 11.4175 15.5066 11.2298C15.4852 11.0421 15.5353 10.8533 15.647 10.701L15.719 10.617L17.432 8.89999H10.001L10 15.646C9.99991 15.7554 9.97586 15.8635 9.92955 15.9627C9.88324 16.0619 9.81579 16.1497 9.73193 16.22C9.64808 16.2903 9.54984 16.3415 9.44413 16.3698C9.33842 16.3981 9.22779 16.403 9.12 16.384L0.62 14.883C0.446242 14.8524 0.288826 14.7615 0.17543 14.6264C0.0620343 14.4912 -8.28557e-05 14.3204 8.29472e-08 14.144V2.14599C2.64526e-06 1.96823 0.0631439 1.79625 0.178164 1.66071C0.293185 1.52518 0.452606 1.43491 0.628 1.40599L9.128 0.00998921C9.23536 -0.00771093 9.34529 -0.00183742 9.45016 0.0272021C9.55502 0.0562416 9.65231 0.107751 9.73528 0.178157C9.81824 0.248563 9.8849 0.336179 9.93061 0.434923C9.97632 0.533668 10 0.641177 10 0.749989ZM6.502 7.89499C6.23612 7.89499 5.98113 8.00061 5.79313 8.18861C5.60512 8.37662 5.4995 8.63161 5.4995 8.89749C5.4995 9.16337 5.60512 9.41836 5.79313 9.60636C5.98113 9.79437 6.23612 9.89999 6.502 9.89999C6.76788 9.89999 7.02287 9.79437 7.21087 9.60636C7.39888 9.41836 7.5045 9.16337 7.5045 8.89749C7.5045 8.63161 7.39888 8.37662 7.21087 8.18861C7.02287 8.00061 6.76788 7.89499 6.502 7.89499ZM11 14.898H11.765L11.867 14.891C12.0467 14.8663 12.2114 14.7773 12.3306 14.6405C12.4497 14.5037 12.5152 14.3284 12.515 14.147L12.508 9.89699H11V14.897V14.898ZM11.002 6.39599L11 5.12099V1.39599H11.745C11.9261 1.39596 12.1011 1.46146 12.2376 1.58038C12.3742 1.6993 12.4631 1.86362 12.488 2.04299L12.495 2.14399L12.502 6.39599H11.002Z" fill="#FA6900"/>
</svg>
