<svg width="19" height="21" viewBox="0 0 19 21" fill="none" xmlns="http://www.w3.org/2000/svg">
<path d="M11.75 2.75002H6.25V0.916687H11.75V2.75002ZM9.91667 17.4167C9.91667 18.3609 10.155 19.25 10.5675 20.0109C10.0633 20.1117 9.54083 20.1667 9 20.1667C6.81196 20.1667 4.71354 19.2975 3.16637 17.7503C1.61919 16.2031 0.75 14.1047 0.75 11.9167C0.75 9.72865 1.61919 7.63023 3.16637 6.08306C4.71354 4.53588 6.81196 3.66669 9 3.66669C10.9433 3.66669 12.7308 4.34502 14.1517 5.50002L15.4533 4.18002C15.9208 4.58335 16.3333 5.00502 16.7458 5.47252L15.4442 6.77419C16.6137 8.23295 17.2507 10.047 17.25 11.9167V12.2375C16.6633 12.0359 16.0583 11.9167 15.4167 11.9167C12.3825 11.9167 9.91667 14.3825 9.91667 17.4167ZM9.91667 6.41669H8.08333V12.8334H9.91667V6.41669ZM17.5617 14.52L14.2708 17.8109L12.8133 16.3534L11.75 17.4167L14.2708 20.1667L18.625 15.8125L17.5617 14.52Z" fill="white"/>
</svg>
