<svg width="33" height="41" viewBox="0 0 33 41" fill="none" xmlns="http://www.w3.org/2000/svg">
<path d="M18.4837 23.8126H11.625C10.5594 23.8126 9.6875 22.9203 9.6875 21.8297V14.81C9.6875 14.2944 9.90062 13.7788 10.2494 13.4219L20.5569 2.87251C18.9288 2.30229 17.2208 2.00759 15.5 2C7.3625 2 0 8.38515 0 18.2603C0 24.5662 4.7275 31.9825 14.2019 40.5092C14.9381 41.1636 16.0619 41.1636 16.7981 40.5092C26.2725 31.9825 31 24.5463 31 18.2603C31 16.2575 30.69 14.4134 30.1281 12.708L19.84 23.2376C19.4912 23.5945 18.9875 23.8126 18.4837 23.8126V23.8126Z" fill="#A4A2A2"/>
<path d="M13 20H17.239L29.556 7.68301L25.317 3.44405L13 15.761V20ZM32.4153 2.0044L30.9956 0.584745C30.8106 0.399383 30.5909 0.252324 30.349 0.151986C30.1071 0.0516475 29.8478 0 29.5859 0C29.3241 0 29.0648 0.0516475 28.8229 0.151986C28.581 0.252324 28.3613 0.399383 28.1763 0.584745L26.7366 2.02439L30.9756 6.26336L32.4153 4.82371C32.6006 4.63873 32.7477 4.419 32.848 4.17712C32.9484 3.93523 33 3.67593 33 3.41405C33 3.15218 32.9484 2.89288 32.848 2.65099C32.7477 2.4091 32.6006 2.18938 32.4153 2.0044Z" fill="#A4A2A2"/>
</svg>
