<svg width="78" height="78" viewBox="0 0 78 78" fill="none" xmlns="http://www.w3.org/2000/svg">
<circle cx="38.5864" cy="39.1645" r="30.5571" fill="#3B71CA" fill-opacity="0.15"/>
<circle cx="39.0156" cy="38.7344" r="38.7344" fill="#3B71CA" fill-opacity="0.15"/>
<path d="M40.7077 41.9165H43.1243V38.2915H46.7493V35.8748H43.1243V32.2498H40.7077V35.8748H37.0827V38.2915H40.7077V41.9165ZM34.666 46.7498C34.0014 46.7498 33.4327 46.5134 32.9598 46.0405C32.4862 45.5669 32.2493 44.9978 32.2493 44.3332V29.8332C32.2493 29.1686 32.4862 28.5995 32.9598 28.1258C33.4327 27.6529 34.0014 27.4165 34.666 27.4165H49.166C49.8306 27.4165 50.3997 27.6529 50.8734 28.1258C51.3463 28.5995 51.5827 29.1686 51.5827 29.8332V44.3332C51.5827 44.9978 51.3463 45.5669 50.8734 46.0405C50.3997 46.5134 49.8306 46.7498 49.166 46.7498H34.666ZM29.8327 51.5832C29.1681 51.5832 28.5994 51.3467 28.1265 50.8739C27.6528 50.4002 27.416 49.8311 27.416 49.1665V32.2498H29.8327V49.1665H46.7493V51.5832H29.8327Z" fill="#30BB1A"/>
</svg>