<svg width="21" height="21" viewBox="0 0 21 21" fill="none" xmlns="http://www.w3.org/2000/svg">
<path d="M10.5007 0.083313C16.2611 0.083313 20.9173 4.73956 20.9173 10.5C20.9173 16.2604 16.2611 20.9166 10.5007 20.9166C4.74023 20.9166 0.0839844 16.2604 0.0839844 10.5C0.0839844 4.73956 4.74023 0.083313 10.5007 0.083313ZM15.709 5.29165H13.1048L12.0632 4.24998H8.93815L7.89648 5.29165H5.29232V7.37498H15.709V5.29165ZM7.37565 16.75H13.6257C13.9019 16.75 14.1669 16.6402 14.3622 16.4449C14.5576 16.2495 14.6673 15.9846 14.6673 15.7083V8.41665H6.33398V15.7083C6.33398 15.9846 6.44373 16.2495 6.63908 16.4449C6.83443 16.6402 7.09938 16.75 7.37565 16.75Z" fill="#EB0F0F"/>
</svg>