<svg width="19" height="22" viewBox="0 0 19 22" fill="none" xmlns="http://www.w3.org/2000/svg">
<path d="M1.75033 3.66666L0.604492 4.83082L3.12533 7.36082C2.22468 8.70916 1.746 10.2952 1.75033 11.9167C1.75033 14.1047 2.61952 16.2031 4.16669 17.7503C5.71387 19.2975 7.81229 20.1667 10.0003 20.1667C11.687 20.1667 13.2545 19.6625 14.5837 18.7917L16.8753 21.0833L18.0212 19.9192L10.9537 12.8333L1.75033 3.66666ZM12.7503 0.916656H7.25033V2.74999H12.7503M18.2503 11.9167C18.2503 13.5942 17.7462 15.1525 16.8753 16.445L10.917 10.4958V6.41666H9.08366V8.66249L5.46283 5.04166C6.76449 4.17082 8.32282 3.66666 10.0003 3.66666C11.9437 3.66666 13.7312 4.34499 15.152 5.47249L16.4537 4.17082L17.7462 5.47249L16.4445 6.77416C17.614 8.23292 18.251 10.047 18.2503 11.9167Z" fill="#6270F0"/>
</svg>
