<svg width="78" height="78" viewBox="0 0 78 78" fill="none" xmlns="http://www.w3.org/2000/svg">
<circle cx="38.5864" cy="39.1647" r="30.5571" fill="#3B71CA" fill-opacity="0.15"/>
<circle cx="39.0156" cy="38.7344" r="38.7344" fill="#3B71CA" fill-opacity="0.15"/>
<path d="M26.9774 29.2554V51.6805C26.9774 52.9139 28.05 53.923 29.3611 53.923H50.8139C52.125 53.923 53.1976 52.9139 53.1976 51.6805V29.2554H26.9774ZM34.1284 49.438H31.7447V33.7404H34.1284V49.438ZM38.8957 49.438H36.512V33.7404H38.8957V49.438ZM43.663 49.438H41.2793V33.7404H43.663V49.438ZM48.4303 49.438H46.0466V33.7404H48.4303V49.438ZM53.7935 22.5278H46.0466V19.7247C46.0448 19.2792 45.8558 18.8524 45.5209 18.5374C45.1861 18.2223 44.7325 18.0446 44.2589 18.0428H35.9161C35.4425 18.0446 34.9889 18.2223 34.6541 18.5374C34.3192 18.8524 34.1302 19.2792 34.1284 19.7247V22.5278H26.3815C25.9077 22.529 25.4538 22.7066 25.1188 23.0217C24.7838 23.3369 24.595 23.764 24.5938 24.2097V27.0129H55.5812V24.2097C55.58 23.764 55.3912 23.3369 55.0562 23.0217C54.7212 22.7066 54.2673 22.529 53.7935 22.5278ZM43.663 22.5278H36.512V20.3145H43.663V22.5278Z" fill="#EB0F0F"/>
</svg>