<svg width="20" height="20" viewBox="0 0 20 20" fill="none" xmlns="http://www.w3.org/2000/svg">
<path d="M16.48 0H3.53C1.58 0 0 1.58 0 3.53V16.47C0 18.42 1.58 20 3.53 20H16.48C18.42 20 20 18.42 20 16.47V3.53C20 1.58 18.42 0 16.48 0ZM13.91 14.66H6.10001C3.96001 14.66 2.22 12.92 2.22 10.78C2.22 8.64 3.96001 6.91 6.10001 6.91C6.51001 6.91 6.85001 7.24 6.85001 7.66C6.85001 8.07 6.51001 8.41 6.10001 8.41C4.79001 8.41 3.72 9.47 3.72 10.78C3.72 12.09 4.79001 13.16 6.10001 13.16H13.91C15.22 13.16 16.28 12.09 16.28 10.78C16.28 9.47 15.22 8.41 13.91 8.41H9.63L10.53 9.31C10.82 9.61 10.82 10.08 10.53 10.37C10.38 10.52 10.19 10.59 10 10.59C9.81 10.59 9.62 10.52 9.47 10.37L7.60001 8.5C7.30001 8.21 7.30001 7.73 7.60001 7.44L9.47 5.56C9.76 5.27 10.24 5.27 10.53 5.56C10.82 5.86 10.82 6.33 10.53 6.62L10.25 6.91H13.91C16.04 6.91 17.78 8.64 17.78 10.78C17.78 12.92 16.04 14.66 13.91 14.66Z" fill="#EB0F0F"/>
</svg>
