<svg width="28" height="29" viewBox="0 0 28 29" fill="none" xmlns="http://www.w3.org/2000/svg">
<path d="M24.972 16.3731L24.9785 16.3763C25.0788 15.7646 25.1274 15.1399 25.1274 14.5216C25.1274 13.9681 25.0853 13.4114 25.0076 12.8676C25.0853 13.4082 25.1241 13.9552 25.1241 14.5022C25.1241 15.1302 25.0723 15.7581 24.972 16.3731ZM0.362698 10.8187C0.346514 10.8058 0.333567 10.7929 0.317383 10.7767C0.34004 10.7993 0.362698 10.822 0.388592 10.8446L2.50869 12.654V12.6508L0.362698 10.8187ZM17.7313 3.82729H17.7345L17.2328 1.11486C17.2264 1.08249 17.2199 1.05336 17.2102 1.02423C17.2134 1.04041 17.2199 1.05984 17.2231 1.07602L17.7313 3.82729ZM19.4792 21.5163L20.4955 20.6812L23.4993 21.7461C24.0495 21.0049 24.5124 20.2087 24.8781 19.3639L22.4602 17.2956L22.6739 15.9976C22.7548 15.5089 22.7969 15.0072 22.7969 14.5055C22.7969 14.0037 22.7548 13.502 22.6739 13.0133L22.4635 11.7218L24.8814 9.65351C24.5124 8.81194 24.0527 8.01245 23.5025 7.27123L20.4988 8.33613L19.4824 7.50104C18.7088 6.86663 17.8446 6.36817 16.9156 6.01859L15.6824 5.55573L15.103 2.41605C14.1889 2.31247 13.2659 2.31247 12.3518 2.41605L11.7724 5.56221L10.5456 6.02507C9.62315 6.37464 8.7654 6.87311 7.99828 7.50428L6.98193 8.34261L3.95877 7.26799C3.40852 8.00922 2.94565 8.80547 2.5799 9.65027L5.02367 11.738L4.81328 13.0327C4.73236 13.515 4.69352 14.0102 4.69352 14.5055C4.69352 14.9974 4.7356 15.4959 4.81328 15.9782L5.02367 17.2729L2.5799 19.3606C2.94889 20.2022 3.40852 21.0017 3.95877 21.7429L6.98193 20.6683L7.99828 21.5066C8.7654 22.1378 9.62315 22.6363 10.5456 22.9858L11.7691 23.4552L12.3485 26.6013C13.2613 26.7049 14.1903 26.7049 15.0998 26.6013L15.6792 23.4616L16.9124 22.9988C17.8446 22.6492 18.7056 22.1507 19.4792 21.5163V21.5163ZM13.7468 19.8882C12.7596 19.8882 11.8306 19.6358 11.0182 19.1923C9.24121 18.2278 8.03388 16.3472 8.03388 14.1818C8.03388 11.0356 10.5845 8.48503 13.7306 8.48503C15.896 8.48503 17.7766 9.69235 18.7412 11.4693C19.1846 12.2785 19.4371 13.2075 19.4371 14.198C19.4371 17.3409 16.8897 19.8882 13.7468 19.8882V19.8882ZM3.8649 24.2417C3.68688 24.3032 3.50238 24.3162 3.3276 24.2805C3.51209 24.3194 3.7063 24.3129 3.89403 24.2482L6.52878 23.3095C6.52554 23.3063 6.51907 23.303 6.51583 23.2998L3.8649 24.2417V24.2417ZM27.0921 10.8187L24.972 12.6314C24.972 12.6378 24.9752 12.6475 24.9752 12.654L27.0921 10.8446C27.3219 10.6472 27.4514 10.3624 27.4546 10.0678C27.4449 10.3527 27.3154 10.6278 27.0921 10.8187Z" fill="black" fill-opacity="0.15"/>
<path d="M27.4483 18.8622C27.4645 19.0143 27.4483 19.1697 27.3933 19.3186L27.3642 19.4027C26.779 21.0333 25.9052 22.5452 24.7845 23.8663L24.7262 23.9342C24.5904 24.0947 24.409 24.2101 24.2061 24.265C24.0031 24.32 23.7883 24.3118 23.5901 24.2417L20.9586 23.3063C19.9932 24.1016 18.9027 24.7316 17.7315 25.1707L17.2233 27.922C17.185 28.129 17.0846 28.3194 16.9354 28.468C16.7862 28.6166 16.5954 28.7163 16.3882 28.7538L16.3008 28.77C15.4549 28.9229 14.597 28.9998 13.7373 28.9998H13.747C14.6112 28.9998 15.4755 28.9221 16.317 28.77L16.4044 28.7538C16.6116 28.7163 16.8024 28.6166 16.9516 28.468C17.1007 28.3194 17.2012 28.129 17.2395 27.922L17.7477 25.1739C18.9194 24.7337 20.0005 24.109 20.9715 23.3128L23.5998 24.2482C23.798 24.3183 24.0128 24.3264 24.2158 24.2715C24.4187 24.2166 24.6001 24.1012 24.7359 23.9407L24.7942 23.8727C25.9206 22.5424 26.7848 21.0438 27.3707 19.4157L27.3998 19.3315C27.4516 19.1794 27.4678 19.0175 27.4483 18.8622V18.8622Z" fill="black" fill-opacity="0.15"/>
<path d="M19.4277 14.1821C19.4277 13.2014 19.1784 12.2756 18.7415 11.4697C17.7769 9.69267 15.8963 8.48535 13.7309 8.48535C10.5848 8.48535 8.03418 11.0359 8.03418 14.1821C8.03418 16.3475 9.2415 18.2281 11.0185 19.1926C11.8245 19.6296 12.7469 19.8788 13.7309 19.8788C16.8771 19.8788 19.4277 17.3283 19.4277 14.1821ZM10.1057 14.1821C10.1057 13.2143 10.4844 12.3048 11.1674 11.6186C11.8536 10.9324 12.7631 10.5569 13.7309 10.5569C14.6987 10.5569 15.6083 10.9324 16.2945 11.6186C16.6317 11.9548 16.899 12.3544 17.0813 12.7943C17.2635 13.2343 17.3569 13.7059 17.3561 14.1821C17.3561 15.1499 16.9774 16.0594 16.2945 16.7456C15.9582 17.0828 15.5586 17.3502 15.1187 17.5324C14.6787 17.7146 14.2071 17.808 13.7309 17.8073C12.7631 17.8073 11.8536 17.4286 11.1674 16.7456C10.8302 16.4094 10.5628 16.0098 10.3806 15.5699C10.1984 15.1299 10.105 14.6583 10.1057 14.1821V14.1821Z" fill="#BBB5B5"/>
<path d="M16.3879 28.754C16.595 28.7165 16.7859 28.6168 16.935 28.4682C17.0842 28.3196 17.1846 28.1292 17.223 27.9222L17.7311 25.1709C18.9024 24.7318 19.9928 24.1018 20.9582 23.3065L23.5897 24.2419C23.7879 24.312 24.0028 24.3202 24.2057 24.2652C24.4086 24.2103 24.59 24.0949 24.7258 23.9344L24.7841 23.8665C25.9105 22.5361 26.7779 21.0343 27.3638 19.4029L27.3929 19.3188C27.448 19.1699 27.4641 19.0145 27.448 18.8624C27.4188 18.6067 27.2958 18.3639 27.0919 18.1859L24.9783 16.3765L24.9718 16.3733C25.0722 15.7583 25.124 15.1304 25.124 14.5024C25.124 13.9554 25.0851 13.4052 25.0074 12.8678C24.9977 12.7966 24.9848 12.7254 24.9751 12.6542C24.9751 12.6477 24.9718 12.638 24.9718 12.6316L27.0919 10.819C27.3153 10.628 27.4447 10.3529 27.4544 10.068C27.4577 9.93856 27.4383 9.80585 27.3929 9.67961L27.3638 9.59546C26.7801 7.9642 25.9062 6.452 24.7841 5.13193L24.7258 5.06395C24.5897 4.9039 24.4083 4.78885 24.2055 4.73396C24.0027 4.67906 23.788 4.68691 23.5897 4.75646L20.9582 5.69189C19.9872 4.89564 18.9061 4.2677 17.7344 3.8275H17.7311L17.223 1.07623C17.2197 1.06005 17.2165 1.04063 17.21 1.02444C17.1633 0.828746 17.0607 0.65084 16.9147 0.512355C16.7688 0.37387 16.5857 0.280771 16.3879 0.244377L16.3005 0.228194C14.6141 -0.0760645 12.8403 -0.0760645 11.154 0.228194L11.0666 0.244377C10.8594 0.281914 10.6686 0.381595 10.5194 0.530179C10.3703 0.678762 10.2698 0.869214 10.2315 1.07623L9.72008 3.84045C8.55771 4.28074 7.47526 4.90835 6.51566 5.69836L3.86473 4.75646C3.66653 4.68636 3.45169 4.67823 3.24875 4.73315C3.04582 4.78808 2.86441 4.90346 2.72862 5.06395L2.67036 5.13193C1.54961 6.45294 0.67577 7.96488 0.0906366 9.59546L0.0615055 9.67961C-0.00594566 9.86773 -0.0176982 10.0713 0.0276571 10.2659C0.0730125 10.4606 0.17355 10.638 0.317212 10.7769C0.333396 10.7898 0.346343 10.806 0.362527 10.819L2.50852 12.651V12.6542C2.40818 13.2627 2.35962 13.881 2.35962 14.4992C2.35962 15.1207 2.40818 15.7421 2.50852 16.3474L0.362527 18.1794C0.202616 18.3163 0.0881651 18.4986 0.0343941 18.7022C-0.0193769 18.9057 -0.00992076 19.1208 0.0615055 19.3188L0.0906366 19.4029C0.676495 21.0343 1.54395 22.5394 2.67036 23.8665L2.72862 23.9344C2.88722 24.1189 3.09761 24.2387 3.32742 24.2808C3.50221 24.3131 3.68671 24.3034 3.86473 24.2419L6.51566 23.3C6.5189 23.3033 6.52537 23.3065 6.52861 23.3097C7.48993 24.0963 8.56131 24.721 9.72008 25.1579L10.2315 27.9222C10.2698 28.1292 10.3703 28.3196 10.5194 28.4682C10.6686 28.6168 10.8594 28.7165 11.0666 28.754L11.154 28.7702C11.9988 28.9223 12.863 29 13.7272 29H13.7369C14.5979 29 15.4621 28.9223 16.3005 28.7702L16.3879 28.754V28.754ZM15.0996 26.6015C14.1855 26.7051 13.2625 26.7051 12.3483 26.6015L11.769 23.4554L10.5455 22.986C9.62298 22.6365 8.76523 22.138 7.99811 21.5068L6.98176 20.6685L3.9586 21.7431C3.40834 21.0019 2.94872 20.2024 2.57973 19.3608L5.0235 17.2731L4.81311 15.9784C4.73543 15.4961 4.69335 14.9977 4.69335 14.5057C4.69335 14.0104 4.73219 13.5152 4.81311 13.0329L5.0235 11.7382L2.57973 9.65048C2.94548 8.80568 3.40834 8.00943 3.9586 7.26821L6.98176 8.34282L7.99811 7.50449C8.76523 6.87332 9.62298 6.37485 10.5455 6.02528L11.7722 5.56242L12.3516 2.41626C13.2611 2.31268 14.1901 2.31268 15.1029 2.41626L15.6822 5.55595L16.9155 6.01881C17.8444 6.36838 18.7086 6.86685 19.4822 7.50126L20.4986 8.33635L23.5023 7.27144C24.0526 8.01267 24.5122 8.81215 24.8812 9.65372L22.4633 11.722L22.6737 13.0135C22.7546 13.5023 22.7967 14.004 22.7967 14.5057C22.7967 15.0074 22.7546 15.5091 22.6737 15.9978L22.4601 17.2958L24.878 19.3641C24.5114 20.2085 24.0487 21.0079 23.4991 21.7464L20.4953 20.6815L19.479 21.5165C18.7054 22.151 17.8444 22.6494 16.9122 22.999L15.679 23.4619L15.0996 26.6015V26.6015Z" fill="#BBB5B5"/>
</svg>
