<svg width="21" height="21" viewBox="0 0 21 21" fill="none" xmlns="http://www.w3.org/2000/svg">
<path d="M10.4997 0.083313C16.2601 0.083313 20.9163 4.73956 20.9163 10.5C20.9163 16.2604 16.2601 20.9166 10.4997 20.9166C4.73926 20.9166 0.0830078 16.2604 0.0830078 10.5C0.0830078 4.73956 4.73926 0.083313 10.4997 0.083313ZM15.708 5.29165H13.1038L12.0622 4.24998H8.93717L7.89551 5.29165H5.29134V7.37498H15.708V5.29165ZM7.37467 16.75H13.6247C13.9009 16.75 14.1659 16.6402 14.3612 16.4449C14.5566 16.2495 14.6663 15.9846 14.6663 15.7083V8.41665H6.33301V15.7083C6.33301 15.9846 6.44276 16.2495 6.63811 16.4449C6.83346 16.6402 7.09841 16.75 7.37467 16.75Z" fill="#EB0F0F"/>
</svg>
