
<svg width="30" height="36" viewBox="0 0 30 36" fill="none" xmlns="http://www.w3.org/2000/svg">
<path d="M14.2105 36V30.2629C6.3 29.8486 0 23.2191 0 15.1394C0 6.78885 6.72632 0 15 0C23.2737 0 30 6.78885 30 15.1394C30 23.0279 24.5684 30.9641 16.4684 34.9004L14.2105 36ZM15 3.18725C8.46316 3.18725 3.15789 8.54183 3.15789 15.1394C3.15789 21.7371 8.46316 27.0916 15 27.0916H17.3684V30.757C23.1158 27.0916 26.8421 21.0677 26.8421 15.1394C26.8421 8.54183 21.5368 3.18725 15 3.18725ZM13.4211 21.5139H16.5789V24.7012H13.4211V21.5139ZM16.5789 19.1235H13.4211C13.4211 13.9442 18.1579 14.3426 18.1579 11.1554C18.1579 9.40239 16.7368 7.96813 15 7.96813C13.2632 7.96813 11.8421 9.40239 11.8421 11.1554H8.68421C8.68421 7.63347 11.5105 4.78088 15 4.78088C18.4895 4.78088 21.3158 7.63347 21.3158 11.1554C21.3158 15.1394 16.5789 15.5378 16.5789 19.1235Z" fill="#A4A2A2"/>
</svg>