<svg width="16" height="16" viewBox="0 0 16 16" fill="none" xmlns="http://www.w3.org/2000/svg">
<path d="M6.875 15.2986L0.275 8.69862C0.175 8.59862 0.104 8.49028 0.0619998 8.37362C0.0206665 8.25695 0 8.13195 0 7.99862C0 7.86528 0.0206665 7.74028 0.0619998 7.62362C0.104 7.50695 0.175 7.39862 0.275 7.29862L6.875 0.698617C7.05833 0.515284 7.28733 0.419284 7.562 0.410618C7.83733 0.402618 8.075 0.498617 8.275 0.698617C8.475 0.881951 8.57933 1.11095 8.588 1.38562C8.596 1.66095 8.5 1.89862 8.3 2.09862L3.4 6.99862H14.575C14.8583 6.99862 15.096 7.09428 15.288 7.28562C15.4793 7.47762 15.575 7.71528 15.575 7.99862C15.575 8.28195 15.4793 8.51928 15.288 8.71062C15.096 8.90262 14.8583 8.99862 14.575 8.99862H3.4L8.3 13.8986C8.48333 14.082 8.57933 14.3153 8.588 14.5986C8.596 14.882 8.5 15.1153 8.3 15.2986C8.11667 15.4986 7.88333 15.5986 7.6 15.5986C7.31667 15.5986 7.075 15.4986 6.875 15.2986Z" fill="#3B71CA"/>
</svg>
