<svg width="36" height="36" viewBox="0 0 36 36" fill="none" xmlns="http://www.w3.org/2000/svg">
<path d="M14.5013 26.298V14.2965H13.077C12.0569 14.8403 11.0711 15.4459 10.125 16.11V17.6738C10.9688 17.0955 12.3052 16.2788 12.9555 15.9255H12.9825V26.298H14.5013V26.298ZM17.1742 23.3618C17.28 24.8018 18.5108 26.5252 21.006 26.5252C23.8365 26.5252 25.506 24.1268 25.506 20.0655C25.506 15.714 23.7488 14.0625 21.1118 14.0625C19.0283 14.0625 17.0685 15.5745 17.0685 18.1328C17.0685 20.7427 18.9225 22.1153 20.8395 22.1153C22.518 22.1153 23.607 21.2692 23.9513 20.3377H24.012C24.003 23.2987 22.9747 25.2068 21.0757 25.2068C19.5817 25.2068 18.8078 24.1943 18.7133 23.3618H17.1742V23.3618ZM23.8185 18.1485C23.8185 19.7145 22.5608 20.8035 21.1545 20.8035C19.8023 20.8035 18.5805 19.9417 18.5805 18.1035C18.5805 16.2517 19.89 15.381 21.2085 15.381C22.6327 15.381 23.8185 16.2765 23.8185 18.1485Z" fill="#A4A2A2"/>
<path d="M7.875 0C8.17337 0 8.45952 0.118526 8.67049 0.329505C8.88147 0.540483 9 0.826631 9 1.125V2.25H27V1.125C27 0.826631 27.1185 0.540483 27.3295 0.329505C27.5405 0.118526 27.8266 0 28.125 0C28.4234 0 28.7095 0.118526 28.9205 0.329505C29.1315 0.540483 29.25 0.826631 29.25 1.125V2.25H31.5C32.6935 2.25 33.8381 2.72411 34.682 3.56802C35.5259 4.41193 36 5.55653 36 6.75V31.5C36 32.6935 35.5259 33.8381 34.682 34.682C33.8381 35.5259 32.6935 36 31.5 36H4.5C3.30653 36 2.16193 35.5259 1.31802 34.682C0.474106 33.8381 0 32.6935 0 31.5V6.75C0 5.55653 0.474106 4.41193 1.31802 3.56802C2.16193 2.72411 3.30653 2.25 4.5 2.25H6.75V1.125C6.75 0.826631 6.86853 0.540483 7.07951 0.329505C7.29048 0.118526 7.57663 0 7.875 0V0ZM2.25 9V31.5C2.25 32.0967 2.48705 32.669 2.90901 33.091C3.33097 33.5129 3.90326 33.75 4.5 33.75H31.5C32.0967 33.75 32.669 33.5129 33.091 33.091C33.5129 32.669 33.75 32.0967 33.75 31.5V9H2.25Z" fill="#A4A2A2"/>
</svg>
