<svg width="92" height="91" viewBox="0 0 92 91" fill="none" xmlns="http://www.w3.org/2000/svg">
<path d="M87.4205 44.2103C87.4205 68.0753 68.0753 87.4205 44.2103 87.4205C20.3452 87.4205 1 68.0753 1 44.2103C1 20.3452 20.3452 1 44.2103 1M74.4574 1V13.9631M74.4574 26.9262V13.9631M74.4574 13.9631H87.4205M74.4574 13.9631H61.4944" stroke="#8DAEE0" stroke-width="2" stroke-linecap="round" stroke-linejoin="round"/>
<path d="M38.6365 51.0744C48.6385 44.7454 63.0094 40.3892 83.1008 40.3892H87.4218C88.4352 40.3892 89.4071 40.7918 90.1237 41.5083C90.8403 42.2249 91.2428 43.1968 91.2428 44.2102C91.2428 70.4758 72.4828 83.436 62.7665 86.7046L62.7664 86.7044L62.7535 86.7092C45.34 93.1068 31.3915 90.7001 21.0678 84.732C10.9165 78.8592 4.57481 69.7108 1.79206 62.9503L1.3297 63.1406L1.79206 62.9503C1.57347 62.4193 1.47737 61.8458 1.51092 61.2726C1.54447 60.6993 1.70679 60.141 1.98582 59.6391C2.26485 59.1372 2.65342 58.7047 3.12263 58.3736C3.5918 58.0426 4.12954 57.8216 4.69588 57.727C4.69593 57.727 4.69599 57.727 4.69604 57.7269L5.05546 57.667C5.40917 57.6854 5.76389 57.665 6.11325 57.606C6.11317 57.606 6.1131 57.606 6.11303 57.606L38.6365 51.0744ZM38.6365 51.0744C47.1688 54.0067 55.672 58.9904 62.2093 67.1136L62.2094 67.1138C63.0111 68.111 63.3837 69.3859 63.2454 70.6579C63.1071 71.9299 62.4691 73.0948 61.4719 73.8965C60.4746 74.6981 59.1998 75.0707 57.9278 74.9324C56.6558 74.7941 55.4909 74.1562 54.6893 73.159C48.234 65.1314 39.123 60.7335 29.9221 58.5982L38.6365 51.0744ZM22.8037 37.3706L22.8033 37.3703C20.4692 35.6914 18.7854 32.9291 18.7854 29.0866C18.7854 25.2496 20.4681 22.4834 22.8016 20.7999C24.6433 19.503 26.8372 18.7997 29.0897 18.7841C30.7814 18.7844 33.234 19.2617 35.3726 20.7986C37.7065 22.4774 39.3905 25.2481 39.3905 29.0866C39.3905 32.924 37.7075 35.6901 35.3743 37.3691C33.5331 38.6675 31.3391 39.3723 29.0861 39.3892C27.3944 39.3888 24.9421 38.9115 22.8037 37.3706Z" fill="#B8CFEA" stroke="#8DAEE0"/>
</svg>
