<?xml version="1.0" standalone="no"?>
<!DOCTYPE svg PUBLIC "-//W3C//DTD SVG 20010904//EN"
 "http://www.w3.org/TR/2001/REC-SVG-20010904/DTD/svg10.dtd">
<svg version="1.0" xmlns="http://www.w3.org/2000/svg"
 width="3480.000000pt" height="936.000000pt" viewBox="0 0 3480.000000 936.000000"
 preserveAspectRatio="xMidYMid meet">

<g transform="translate(0.000000,936.000000) scale(0.100000,-0.100000)"
fill="#000000" stroke="none">
<path d="M3244 9340 c-90 -18 -154 -62 -285 -197 -137 -141 -180 -208 -200
-316 -14 -77 1 -169 40 -253 22 -48 55 -88 133 -167 184 -185 283 -242 413
-235 108 5 149 31 302 188 152 155 195 223 214 337 14 86 -5 200 -47 270 -40
69 -245 284 -306 320 -55 33 -153 64 -198 62 -14 -1 -44 -5 -66 -9z"/>
<path d="M9036 7899 c-124 -20 -250 -120 -306 -241 -63 -138 -60 -19 -60
-2212 0 -2194 -3 -2077 61 -2217 42 -92 141 -187 226 -219 131 -49 302 -33
410 40 97 65 167 176 195 311 11 52 13 443 13 2094 0 1909 -1 2034 -18 2095
-53 197 -180 321 -358 350 -72 11 -93 11 -163 -1z"/>
<path d="M15126 7899 c-123 -20 -247 -119 -305 -242 -59 -128 -56 7 -56 -2217
0 -1953 1 -2048 18 -2110 28 -99 73 -174 143 -239 105 -99 240 -132 397 -97
180 40 295 176 332 391 14 80 15 322 13 2100 -3 1888 -4 2014 -21 2070 -58
198 -181 316 -358 344 -72 12 -93 12 -163 0z"/>
<path d="M19705 7899 c-184 -13 -445 -67 -607 -125 -40 -15 -113 -47 -163 -71
-382 -191 -621 -501 -690 -900 -20 -112 -19 -351 0 -473 67 -412 332 -725 782
-923 236 -104 477 -180 898 -286 339 -84 552 -166 665 -253 65 -50 150 -144
178 -196 50 -95 66 -164 66 -287 0 -212 -77 -367 -252 -507 -191 -152 -498
-230 -788 -199 -229 25 -370 79 -506 195 -125 107 -206 237 -317 509 -33 82
-76 175 -96 206 -95 157 -218 219 -394 199 -128 -14 -240 -98 -304 -227 -29
-59 -32 -76 -35 -171 -6 -175 30 -322 127 -520 144 -292 384 -542 648 -674
176 -88 343 -143 533 -175 458 -78 984 -39 1331 99 240 96 396 196 554 354
240 241 365 519 396 884 18 208 -8 445 -68 622 -133 391 -466 659 -1058 853
-173 57 -433 132 -635 182 -542 137 -775 266 -872 481 -30 69 -37 203 -13 290
52 191 261 363 511 419 98 23 341 30 461 15 310 -39 464 -169 667 -565 116
-228 203 -321 323 -345 214 -45 421 93 479 321 20 77 15 218 -12 319 -25 95
-83 226 -139 311 -68 102 -250 282 -355 351 -350 230 -782 324 -1315 287z"/>
<path d="M24303 7899 c-135 -10 -267 -31 -423 -69 -481 -118 -890 -402 -1151
-800 -289 -439 -435 -1027 -416 -1675 28 -933 362 -1645 952 -2027 263 -171
559 -278 895 -325 156 -21 556 -24 710 -5 513 64 927 261 1245 593 332 347
535 820 612 1424 24 197 24 661 -1 865 -105 859 -487 1469 -1119 1786 -158 80
-227 106 -392 149 -308 81 -593 107 -912 84z m470 -778 c54 -12 133 -33 175
-47 354 -121 628 -424 766 -845 77 -234 108 -462 108 -779 0 -240 -17 -417
-58 -598 -139 -620 -530 -1026 -1059 -1102 -165 -23 -387 -7 -545 40 -217 65
-441 228 -590 430 -67 92 -174 300 -214 421 -230 686 -136 1569 217 2044 183
247 464 409 789 455 96 13 300 4 411 -19z"/>
<path d="M4549 7891 c-79 -26 -154 -78 -247 -175 -105 -109 -143 -169 -167
-261 -29 -114 -13 -245 43 -349 28 -52 424 -474 1407 -1501 589 -615 608 -637
687 -792 99 -192 143 -391 134 -608 -9 -231 -76 -444 -201 -639 -76 -120 -237
-267 -390 -359 -84 -50 -134 -70 -251 -100 -91 -24 -118 -27 -279 -27 -161 0
-188 3 -279 27 -155 40 -237 81 -381 189 -89 66 -325 310 -1225 1259 -643 680
-783 823 -832 852 -83 50 -145 66 -240 62 -71 -4 -94 -9 -162 -42 -66 -31 -95
-54 -164 -125 -46 -48 -99 -109 -118 -137 -97 -140 -99 -369 -6 -515 16 -25
132 -153 258 -285 282 -294 570 -597 1029 -1081 473 -500 660 -689 790 -799
338 -285 682 -432 1114 -475 258 -25 571 7 823 86 805 252 1367 923 1505 1795
27 175 25 559 -5 734 -44 253 -113 468 -222 684 -110 221 -219 375 -406 576
-431 464 -1811 1905 -1851 1933 -84 59 -134 76 -238 79 -55 1 -112 -1 -126 -6z"/>
<path d="M10700 7809 c-121 -21 -211 -86 -259 -188 -23 -50 -26 -68 -26 -166
0 -94 3 -117 23 -156 40 -83 117 -144 227 -180 32 -11 257 -14 1102 -19 l1063
-5 -152 -190 c-83 -104 -289 -363 -457 -575 -416 -521 -777 -974 -1016 -1275
-109 -137 -359 -450 -554 -695 -386 -483 -428 -539 -462 -627 -32 -82 -32
-240 0 -332 67 -193 215 -301 452 -331 110 -13 3076 -14 3171 0 135 20 236 87
284 188 37 78 45 213 18 298 -27 86 -106 164 -200 196 l-69 23 -1268 3 c-790
1 -1267 6 -1265 12 3 10 390 495 1558 1954 789 987 912 1146 964 1249 47 94
67 194 67 337 0 174 -36 283 -119 366 -49 49 -88 72 -172 100 -52 18 -120 19
-1455 20 -810 1 -1423 -2 -1455 -7z"/>
<path d="M27935 7809 c-201 -30 -319 -127 -375 -308 -39 -125 -41 -230 -38
-2186 4 -2082 0 -1942 66 -2086 101 -223 365 -312 599 -202 63 29 152 122 186
195 60 127 60 123 64 1060 l4 857 817 3 c816 3 817 3 883 26 75 25 146 82 183
145 49 85 57 221 20 330 -22 64 -100 149 -162 175 -91 39 -150 42 -959 42
l-783 0 0 610 0 610 933 0 c1010 1 1043 2 1131 54 71 42 101 71 137 138 33 61
34 66 34 178 0 106 -2 120 -28 172 -39 79 -111 142 -195 170 l-67 23 -1195 1
c-657 1 -1222 -2 -1255 -7z"/>
<path d="M31273 7809 c-125 -21 -226 -84 -278 -174 -36 -60 -58 -175 -51 -253
14 -133 85 -246 189 -299 95 -48 158 -52 740 -53 l537 0 0 -1764 c0 -1199 3
-1789 11 -1841 30 -218 124 -357 281 -417 74 -28 198 -34 275 -14 87 22 138
50 194 106 56 56 92 124 122 228 l22 77 3 1812 2 1812 573 4 c610 3 613 4 712
55 53 26 131 110 158 170 19 40 22 65 22 167 0 102 -3 127 -22 167 -29 64
-106 144 -167 175 -105 53 -80 52 -1736 51 -844 0 -1558 -4 -1587 -9z"/>
<path d="M9325 2314 c-47 -24 -69 -50 -98 -112 -35 -75 -446 -1162 -463 -1227
-16 -57 -10 -97 18 -138 37 -52 114 -72 173 -45 31 14 75 103 130 261 l38 107
294 0 c226 0 295 -3 298 -12 2 -7 28 -76 56 -153 64 -169 99 -215 168 -215 74
0 134 47 147 116 9 49 -10 104 -260 748 -148 382 -234 590 -253 614 -16 19
-44 43 -63 53 -44 24 -143 25 -185 3z m183 -569 c46 -132 92 -264 102 -292
l19 -53 -214 0 -214 0 48 138 c26 75 74 213 106 306 32 94 61 163 63 155 3 -7
43 -122 90 -254z"/>
<path d="M10845 2308 c-56 -44 -55 -31 -55 -753 0 -734 -1 -716 62 -755 41
-26 117 -23 149 6 56 51 54 22 54 749 0 620 -1 673 -18 705 -9 20 -30 44 -46
53 -42 24 -112 22 -146 -5z"/>
<path d="M19458 2314 c-16 -8 -37 -32 -48 -54 -19 -38 -20 -58 -20 -700 0
-714 -1 -699 54 -749 19 -18 40 -25 78 -28 65 -5 106 17 134 73 18 37 19 68
19 704 0 621 -1 667 -18 698 -36 65 -132 93 -199 56z"/>
<path d="M30204 2310 c-11 -4 -33 -22 -47 -40 -21 -25 -27 -42 -27 -81 0 -64
20 -102 64 -123 68 -32 151 -12 182 46 18 32 17 113 -1 148 -27 51 -109 75
-171 50z"/>
<path d="M29016 2270 c-45 -40 -56 -92 -56 -255 l0 -125 -25 0 c-14 0 -41 -6
-59 -14 -105 -44 -80 -174 37 -191 l47 -7 0 -293 c0 -310 10 -425 40 -486 46
-89 135 -124 294 -117 115 6 173 25 211 70 31 37 34 94 5 131 -29 36 -51 40
-130 26 -54 -9 -76 -9 -96 -1 -49 23 -54 55 -54 376 l0 294 68 7 c92 9 129 28
141 72 23 82 -34 133 -149 133 l-60 0 0 145 c0 163 -8 195 -59 238 -47 39
-108 38 -155 -3z"/>
<path d="M11815 1910 c-43 -17 -70 -59 -70 -108 1 -53 247 -829 293 -922 34
-69 78 -100 141 -100 65 0 107 29 136 93 13 28 61 187 106 352 44 165 84 303
88 307 4 4 44 -128 90 -295 46 -166 93 -323 103 -348 30 -71 67 -101 131 -107
69 -5 108 14 141 71 33 57 296 859 303 923 10 91 -46 152 -129 141 -44 -6 -63
-19 -83 -58 -8 -15 -58 -182 -110 -370 -53 -189 -99 -351 -102 -359 -3 -8 -47
140 -99 329 -51 189 -102 360 -112 379 -26 50 -62 74 -119 79 -64 6 -111 -20
-140 -78 -13 -24 -64 -196 -115 -383 -63 -233 -95 -332 -100 -320 -4 11 -46
160 -93 332 -104 380 -117 417 -155 437 -32 16 -74 18 -105 5z"/>
<path d="M14315 1913 c-102 -13 -196 -55 -263 -116 -56 -52 -81 -106 -82 -173
0 -42 5 -56 26 -77 52 -52 130 -47 166 11 62 101 127 146 224 157 153 18 244
-46 244 -171 0 -31 -3 -33 -57 -49 -32 -10 -145 -37 -252 -61 -215 -49 -271
-73 -332 -142 -104 -118 -89 -317 31 -426 61 -55 119 -78 215 -84 132 -8 236
25 353 112 35 26 65 46 66 44 1 -2 19 -30 41 -62 61 -90 118 -116 185 -81 61
32 75 90 44 195 -13 42 -18 124 -24 345 -7 259 -10 297 -29 358 -40 123 -119
186 -268 212 -73 13 -219 17 -288 8z m318 -645 c-7 -109 -26 -168 -70 -212
-104 -106 -292 -113 -353 -14 -30 49 -27 118 6 157 14 18 36 37 48 43 17 10
325 91 362 96 8 2 10 -21 7 -70z"/>
<path d="M15649 1897 c-46 -30 -71 -82 -65 -128 5 -29 195 -546 333 -901 l26
-68 -26 -67 c-61 -153 -92 -176 -219 -159 -44 6 -65 4 -91 -9 -84 -40 -72
-153 20 -192 51 -21 181 -28 255 -14 113 22 186 81 239 196 36 76 404 1086
429 1177 10 37 16 77 13 90 -21 80 -102 120 -172 84 -39 -21 -69 -94 -196
-476 -59 -179 -111 -328 -114 -332 -4 -5 -58 148 -120 340 -62 191 -124 371
-137 400 -40 82 -107 105 -175 59z"/>
<path d="M17494 1905 c-119 -26 -204 -88 -251 -183 -23 -47 -28 -70 -28 -132
1 -166 99 -248 395 -330 190 -53 241 -89 244 -170 2 -82 -93 -138 -217 -128
-102 9 -161 48 -223 149 -38 64 -75 85 -128 75 -78 -15 -108 -102 -65 -196 60
-133 219 -210 434 -210 288 0 456 128 459 349 2 176 -93 257 -399 341 -213 59
-255 85 -255 158 0 59 78 112 165 112 76 0 138 -35 200 -112 61 -77 120 -97
185 -63 38 20 50 43 50 97 -1 114 -132 218 -312 248 -83 13 -179 11 -254 -5z"/>
<path d="M20534 1901 c-17 -11 -36 -34 -43 -52 -7 -22 -11 -177 -11 -496 0
-492 1 -505 48 -547 30 -26 101 -32 140 -12 66 34 66 38 73 381 4 184 12 325
18 347 30 98 127 171 226 170 74 -1 113 -24 145 -87 25 -50 25 -52 30 -385 4
-293 7 -339 22 -367 55 -99 184 -99 229 0 17 39 19 69 19 372 0 183 -5 359
-11 395 -12 77 -59 169 -108 212 -19 17 -60 43 -91 57 -47 22 -69 26 -150 26
-86 0 -101 -3 -161 -31 -42 -20 -87 -52 -122 -88 l-56 -57 -7 46 c-16 111
-107 166 -190 116z"/>
<path d="M22261 1907 c-13 -6 -34 -25 -45 -40 -21 -28 -21 -39 -24 -495 -2
-414 -1 -472 14 -510 30 -81 130 -109 193 -56 56 47 56 46 61 384 6 349 7 354
74 428 48 53 95 74 162 73 108 -1 153 -46 174 -172 5 -35 10 -192 10 -347 0
-315 4 -336 64 -374 39 -24 116 -20 147 8 52 47 54 60 57 359 4 351 -6 473
-46 559 -70 149 -220 221 -394 186 -85 -16 -132 -42 -201 -111 -32 -33 -60
-59 -63 -59 -2 0 -4 16 -4 35 0 102 -97 174 -179 132z"/>
<path d="M24251 1904 c-127 -27 -242 -107 -311 -214 -77 -119 -108 -320 -76
-480 23 -113 65 -198 136 -274 108 -115 237 -162 415 -153 253 13 417 149 481
397 22 86 23 253 0 340 -75 294 -339 451 -645 384z m239 -224 c110 -56 171
-204 155 -379 -12 -136 -59 -229 -140 -276 -120 -71 -275 -23 -339 104 -65
128 -60 338 10 458 63 108 204 149 314 93z"/>
<path d="M25625 1911 c-27 -12 -62 -50 -74 -83 -7 -20 -6 -42 4 -81 20 -79
311 -823 344 -881 32 -57 77 -86 134 -86 57 0 103 24 130 67 25 40 350 875
361 929 10 44 -15 99 -56 124 -59 36 -122 23 -157 -34 -12 -19 -76 -189 -142
-377 -66 -189 -124 -349 -128 -357 -5 -9 -45 95 -106 275 -176 517 -169 502
-245 509 -25 2 -54 0 -65 -5z"/>
<path d="M27565 1913 c-186 -25 -324 -130 -349 -265 -13 -72 39 -138 109 -138
40 0 62 16 110 82 24 33 60 71 80 85 70 47 224 54 293 13 38 -24 61 -66 69
-129 l5 -47 -77 -23 c-43 -12 -155 -40 -250 -61 -186 -41 -239 -62 -298 -119
-59 -55 -80 -104 -85 -196 -5 -100 19 -171 80 -234 137 -143 389 -134 595 21
30 23 55 39 56 37 2 -2 20 -30 40 -62 59 -91 128 -120 190 -79 64 42 70 78 35
205 -20 73 -22 103 -20 277 2 216 -9 361 -33 432 -37 107 -139 177 -288 197
-75 11 -199 12 -262 4z m315 -638 c0 -115 -16 -162 -75 -221 -64 -64 -136 -90
-224 -81 -86 9 -142 66 -145 147 -2 89 51 125 249 170 76 18 148 36 160 40 34
14 35 12 35 -55z"/>
<path d="M30192 1900 c-62 -38 -62 -41 -62 -550 0 -509 0 -512 62 -550 66 -40
155 -13 184 55 11 28 14 117 14 497 0 421 -2 466 -18 498 -32 64 -117 88 -180
50z"/>
<path d="M31520 1905 c-248 -56 -400 -267 -400 -555 0 -174 49 -309 150 -414
111 -116 237 -162 415 -153 117 6 195 30 273 84 149 102 222 260 222 478 -1
280 -113 460 -340 543 -83 31 -227 38 -320 17z m240 -225 c83 -43 132 -126
151 -254 22 -148 -26 -319 -108 -382 -106 -80 -240 -70 -325 25 -56 62 -79
125 -85 234 -14 212 58 355 194 393 56 16 123 9 173 -16z"/>
<path d="M32961 1907 c-13 -6 -34 -25 -45 -40 -21 -28 -21 -39 -24 -495 -2
-414 -1 -472 14 -510 30 -81 130 -109 193 -56 56 47 56 46 61 384 6 349 7 354
74 428 48 53 95 74 162 73 108 -1 153 -46 174 -172 5 -35 10 -192 10 -347 0
-315 4 -336 64 -374 39 -24 116 -20 147 8 51 46 53 61 57 354 4 352 -6 478
-46 563 -70 149 -221 221 -394 187 -85 -16 -132 -42 -201 -111 -32 -33 -60
-59 -63 -59 -2 0 -4 15 -4 33 -1 105 -97 177 -179 134z"/>
</g>
</svg>
